# xmcd CD database file
#
# Track frame offsets:
#	150
#	17060
#	32402
#	48468
#	66700
#	84905
#	97504
#	114454
#	133725
#	154063
#	170821
#	187615
#	201336
#	226401
#	239895
#
# Disc length: 3439 seconds
#
# Revision: 1
# Processed by: cddbd v1.5.2PL0 Copyright (c) Steve Scherf et al.
# Submitted via: CDex 1.50
#
DISCID=c50d6d0f
DTITLE=Rebekka Bakken - Most Personal CD02
DYEAR=2016
DGENRE=Soul/Jazz/Blues
TTITLE0=Waiter And Cake
TTITLE1=Virgin's Lullaby
TTITLE2=Any Pretty Girl
TTITLE3=Going Home (Is A Lonely Travel)
TTITLE4=Same Kind
TTITLE5=If You Don't Ask For More
TTITLE6=The Art Of How To Fall
TTITLE7=Didn't I
TTITLE8=Ghost In This House
TTITLE9=Never Been To Paris
TTITLE10=Everything Can Change
TTITLE11=Starlight Of Your Heart
TTITLE12=Say Goodbye To What Is Gone
TTITLE13=As I Lay Myself Bare
TTITLE14=Use To Be My Movie
EXTD=YEAR: 2016
EXTT0=
EXTT1=
EXTT2=
EXTT3=
EXTT4=
EXTT5=
EXTT6=
EXTT7=
EXTT8=
EXTT9=
EXTT10=
EXTT11=
EXTT12=
EXTT13=
EXTT14=
PLAYORDER=
